<svg xmlns="http://www.w3.org/2000/svg" xmlns:xlink="http://www.w3.org/1999/xlink" width="500" zoomAndPan="magnify" viewBox="0 0 375 374.999991" height="500" preserveAspectRatio="xMidYMid meet" version="1.0"><defs><g/></defs><rect x="-37.5" width="450" fill="#ffffff" y="-37.499999" height="449.999989" fill-opacity="1"/><rect x="-37.5" width="450" fill="#ffffff" y="-37.499999" height="449.999989" fill-opacity="1"/><g fill="#000000" fill-opacity="0.4"><g transform="translate(106.649162, 268.063252)"><g><path d="M 75.03125 -168.640625 C 103.144531 -168.640625 124.1875 -161.613281 138.15625 -147.5625 C 152.132812 -133.507812 159.125 -113.066406 159.125 -86.234375 C 159.125 -68.921875 155.707031 -53.753906 148.875 -40.734375 C 142.050781 -27.710938 132.164062 -17.664062 119.21875 -10.59375 C 106.28125 -3.53125 90.835938 0 72.890625 0 L 59.078125 -0.234375 C 50.179688 -0.554688 43.671875 -0.71875 39.546875 -0.71875 C 26.523438 -0.71875 16.675781 -0.476562 10 0 L 10 -4.765625 C 15.71875 -5.078125 19.882812 -5.707031 22.5 -6.65625 C 25.125 -7.613281 26.910156 -9.441406 27.859375 -12.140625 C 28.816406 -14.847656 29.296875 -19.21875 29.296875 -25.25 L 29.296875 -143.390625 C 29.296875 -149.429688 28.816406 -153.800781 27.859375 -156.5 C 26.910156 -159.195312 25.125 -161.019531 22.5 -161.96875 C 19.882812 -162.925781 15.71875 -163.566406 10 -163.890625 L 10 -168.640625 C 15.5625 -168.171875 23.265625 -167.9375 33.109375 -167.9375 L 53.359375 -168.171875 C 64.160156 -168.484375 71.382812 -168.640625 75.03125 -168.640625 Z M 69.078125 -164.359375 C 64.148438 -164.359375 60.457031 -163.800781 58 -162.6875 C 55.539062 -161.582031 53.832031 -159.597656 52.875 -156.734375 C 51.925781 -153.878906 51.453125 -149.59375 51.453125 -143.875 L 51.453125 -24.765625 C 51.453125 -19.054688 51.925781 -14.769531 52.875 -11.90625 C 53.832031 -9.050781 55.539062 -7.066406 58 -5.953125 C 60.457031 -4.835938 64.226562 -4.28125 69.3125 -4.28125 C 86.144531 -4.28125 99.40625 -7.335938 109.09375 -13.453125 C 118.78125 -19.566406 125.566406 -28.5 129.453125 -40.25 C 133.347656 -52.007812 135.296875 -67.019531 135.296875 -85.28125 C 135.296875 -103.539062 133.148438 -118.425781 128.859375 -129.9375 C 124.578125 -141.445312 117.628906 -150.0625 108.015625 -155.78125 C 98.410156 -161.5 85.429688 -164.359375 69.078125 -164.359375 Z M 69.078125 -164.359375 "/></g></g></g><g fill="#000000" fill-opacity="1"><g transform="translate(96.121616, 257.535704)"><g><path d="M 75.03125 -168.640625 C 103.144531 -168.640625 124.1875 -161.613281 138.15625 -147.5625 C 152.132812 -133.507812 159.125 -113.066406 159.125 -86.234375 C 159.125 -68.921875 155.707031 -53.753906 148.875 -40.734375 C 142.050781 -27.710938 132.164062 -17.664062 119.21875 -10.59375 C 106.28125 -3.53125 90.835938 0 72.890625 0 L 59.078125 -0.234375 C 50.179688 -0.554688 43.671875 -0.71875 39.546875 -0.71875 C 26.523438 -0.71875 16.675781 -0.476562 10 0 L 10 -4.765625 C 15.71875 -5.078125 19.882812 -5.707031 22.5 -6.65625 C 25.125 -7.613281 26.910156 -9.441406 27.859375 -12.140625 C 28.816406 -14.847656 29.296875 -19.21875 29.296875 -25.25 L 29.296875 -143.390625 C 29.296875 -149.429688 28.816406 -153.800781 27.859375 -156.5 C 26.910156 -159.195312 25.125 -161.019531 22.5 -161.96875 C 19.882812 -162.925781 15.71875 -163.566406 10 -163.890625 L 10 -168.640625 C 15.5625 -168.171875 23.265625 -167.9375 33.109375 -167.9375 L 53.359375 -168.171875 C 64.160156 -168.484375 71.382812 -168.640625 75.03125 -168.640625 Z M 69.078125 -164.359375 C 64.148438 -164.359375 60.457031 -163.800781 58 -162.6875 C 55.539062 -161.582031 53.832031 -159.597656 52.875 -156.734375 C 51.925781 -153.878906 51.453125 -149.59375 51.453125 -143.875 L 51.453125 -24.765625 C 51.453125 -19.054688 51.925781 -14.769531 52.875 -11.90625 C 53.832031 -9.050781 55.539062 -7.066406 58 -5.953125 C 60.457031 -4.835938 64.226562 -4.28125 69.3125 -4.28125 C 86.144531 -4.28125 99.40625 -7.335938 109.09375 -13.453125 C 118.78125 -19.566406 125.566406 -28.5 129.453125 -40.25 C 133.347656 -52.007812 135.296875 -67.019531 135.296875 -85.28125 C 135.296875 -103.539062 133.148438 -118.425781 128.859375 -129.9375 C 124.578125 -141.445312 117.628906 -150.0625 108.015625 -155.78125 C 98.410156 -161.5 85.429688 -164.359375 69.078125 -164.359375 Z M 69.078125 -164.359375 "/></g></g></g><g fill="#000000" fill-opacity="0.4"><g transform="translate(172.127424, 206.814167)"><g><path d="M 114.15625 -26.375 C 114.15625 -18.539062 114.632812 -9.75 115.59375 0 C 106.257812 -0.414062 90.53125 -0.625 68.40625 -0.625 C 42.03125 -0.625 22.113281 -0.414062 8.65625 0 L 8.65625 -4.125 C 13.601562 -4.394531 17.207031 -4.941406 19.46875 -5.765625 C 21.738281 -6.585938 23.285156 -8.164062 24.109375 -10.5 C 24.929688 -12.84375 25.34375 -16.625 25.34375 -21.84375 L 25.34375 -124.046875 C 25.34375 -129.265625 24.929688 -133.039062 24.109375 -135.375 C 23.285156 -137.71875 21.738281 -139.300781 19.46875 -140.125 C 17.207031 -140.945312 13.601562 -141.492188 8.65625 -141.765625 L 8.65625 -145.890625 C 22.113281 -145.484375 42.03125 -145.28125 68.40625 -145.28125 C 88.601562 -145.28125 102.960938 -145.484375 111.484375 -145.890625 C 110.515625 -136.828125 110.03125 -128.722656 110.03125 -121.578125 C 110.03125 -116.222656 110.238281 -111.960938 110.65625 -108.796875 L 105.921875 -108.796875 C 104.953125 -117.722656 103.710938 -124.347656 102.203125 -128.671875 C 100.691406 -133.003906 98.148438 -136.164062 94.578125 -138.15625 C 91.003906 -140.15625 85.578125 -141.15625 78.296875 -141.15625 L 61.203125 -141.15625 C 56.253906 -141.15625 52.644531 -140.773438 50.375 -140.015625 C 48.113281 -139.265625 46.570312 -137.71875 45.75 -135.375 C 44.925781 -133.039062 44.515625 -129.265625 44.515625 -124.046875 L 44.515625 -75.421875 L 58.109375 -75.421875 C 62.921875 -75.421875 66.628906 -76.550781 69.234375 -78.8125 C 71.847656 -81.082031 73.597656 -83.757812 74.484375 -86.84375 C 75.378906 -89.9375 76.101562 -93.820312 76.65625 -98.5 L 77.28125 -102.625 L 82.015625 -102.625 C 81.597656 -96.851562 81.390625 -90.394531 81.390625 -83.25 L 81.390625 -73.359375 C 81.390625 -66.347656 81.800781 -56.59375 82.625 -44.09375 L 77.890625 -44.09375 C 77.753906 -45.0625 77.34375 -48.394531 76.65625 -54.09375 C 75.96875 -59.789062 74.078125 -64.082031 70.984375 -66.96875 C 67.898438 -69.851562 63.609375 -71.296875 58.109375 -71.296875 L 44.515625 -71.296875 L 44.515625 -21.84375 C 44.515625 -16.625 44.925781 -12.84375 45.75 -10.5 C 46.570312 -8.164062 48.113281 -6.617188 50.375 -5.859375 C 52.644531 -5.109375 56.253906 -4.734375 61.203125 -4.734375 L 76.25 -4.734375 C 84.757812 -4.734375 91.242188 -5.867188 95.703125 -8.140625 C 100.171875 -10.410156 103.4375 -14.050781 105.5 -19.0625 C 107.5625 -24.070312 109.070312 -31.457031 110.03125 -41.21875 L 114.78125 -41.21875 C 114.363281 -37.507812 114.15625 -32.5625 114.15625 -26.375 Z M 114.15625 -26.375 "/></g></g></g><g fill="#000000" fill-opacity="1"><g transform="translate(163.020594, 197.707341)"><g><path d="M 114.15625 -26.375 C 114.15625 -18.539062 114.632812 -9.75 115.59375 0 C 106.257812 -0.414062 90.53125 -0.625 68.40625 -0.625 C 42.03125 -0.625 22.113281 -0.414062 8.65625 0 L 8.65625 -4.125 C 13.601562 -4.394531 17.207031 -4.941406 19.46875 -5.765625 C 21.738281 -6.585938 23.285156 -8.164062 24.109375 -10.5 C 24.929688 -12.84375 25.34375 -16.625 25.34375 -21.84375 L 25.34375 -124.046875 C 25.34375 -129.265625 24.929688 -133.039062 24.109375 -135.375 C 23.285156 -137.71875 21.738281 -139.300781 19.46875 -140.125 C 17.207031 -140.945312 13.601562 -141.492188 8.65625 -141.765625 L 8.65625 -145.890625 C 22.113281 -145.484375 42.03125 -145.28125 68.40625 -145.28125 C 88.601562 -145.28125 102.960938 -145.484375 111.484375 -145.890625 C 110.515625 -136.828125 110.03125 -128.722656 110.03125 -121.578125 C 110.03125 -116.222656 110.238281 -111.960938 110.65625 -108.796875 L 105.921875 -108.796875 C 104.953125 -117.722656 103.710938 -124.347656 102.203125 -128.671875 C 100.691406 -133.003906 98.148438 -136.164062 94.578125 -138.15625 C 91.003906 -140.15625 85.578125 -141.15625 78.296875 -141.15625 L 61.203125 -141.15625 C 56.253906 -141.15625 52.644531 -140.773438 50.375 -140.015625 C 48.113281 -139.265625 46.570312 -137.71875 45.75 -135.375 C 44.925781 -133.039062 44.515625 -129.265625 44.515625 -124.046875 L 44.515625 -75.421875 L 58.109375 -75.421875 C 62.921875 -75.421875 66.628906 -76.550781 69.234375 -78.8125 C 71.847656 -81.082031 73.597656 -83.757812 74.484375 -86.84375 C 75.378906 -89.9375 76.101562 -93.820312 76.65625 -98.5 L 77.28125 -102.625 L 82.015625 -102.625 C 81.597656 -96.851562 81.390625 -90.394531 81.390625 -83.25 L 81.390625 -73.359375 C 81.390625 -66.347656 81.800781 -56.59375 82.625 -44.09375 L 77.890625 -44.09375 C 77.753906 -45.0625 77.34375 -48.394531 76.65625 -54.09375 C 75.96875 -59.789062 74.078125 -64.082031 70.984375 -66.96875 C 67.898438 -69.851562 63.609375 -71.296875 58.109375 -71.296875 L 44.515625 -71.296875 L 44.515625 -21.84375 C 44.515625 -16.625 44.925781 -12.84375 45.75 -10.5 C 46.570312 -8.164062 48.113281 -6.617188 50.375 -5.859375 C 52.644531 -5.109375 56.253906 -4.734375 61.203125 -4.734375 L 76.25 -4.734375 C 84.757812 -4.734375 91.242188 -5.867188 95.703125 -8.140625 C 100.171875 -10.410156 103.4375 -14.050781 105.5 -19.0625 C 107.5625 -24.070312 109.070312 -31.457031 110.03125 -41.21875 L 114.78125 -41.21875 C 114.363281 -37.507812 114.15625 -32.5625 114.15625 -26.375 Z M 114.15625 -26.375 "/></g></g></g></svg>