<svg xmlns="http://www.w3.org/2000/svg" xmlns:xlink="http://www.w3.org/1999/xlink" width="500" zoomAndPan="magnify" viewBox="0 0 375 374.999991" height="500" preserveAspectRatio="xMidYMid meet" version="1.0"><defs><g/></defs><g fill="#000000" fill-opacity="0.4"><g transform="translate(8.511315, 378.191311)"><g><path d="M 136.84375 -307.5625 C 188.101562 -307.5625 226.472656 -294.742188 251.953125 -269.109375 C 277.441406 -243.484375 290.1875 -206.195312 290.1875 -157.25 C 290.1875 -125.6875 283.957031 -98.03125 271.5 -74.28125 C 259.050781 -50.53125 241.023438 -32.210938 217.421875 -19.328125 C 193.816406 -6.441406 165.648438 0 132.921875 0 L 107.734375 -0.4375 C 91.515625 -1.007812 79.640625 -1.296875 72.109375 -1.296875 C 48.359375 -1.296875 30.40625 -0.863281 18.25 0 L 18.25 -8.6875 C 28.675781 -9.269531 36.273438 -10.425781 41.046875 -12.15625 C 45.828125 -13.894531 49.085938 -17.226562 50.828125 -22.15625 C 52.566406 -27.082031 53.4375 -35.046875 53.4375 -46.046875 L 53.4375 -261.515625 C 53.4375 -272.515625 52.566406 -280.476562 50.828125 -285.40625 C 49.085938 -290.332031 45.828125 -293.660156 41.046875 -295.390625 C 36.273438 -297.128906 28.675781 -298.289062 18.25 -298.875 L 18.25 -307.5625 C 28.382812 -306.6875 42.425781 -306.25 60.375 -306.25 L 97.3125 -306.6875 C 117 -307.269531 130.175781 -307.5625 136.84375 -307.5625 Z M 125.984375 -299.734375 C 117.003906 -299.734375 110.269531 -298.71875 105.78125 -296.6875 C 101.289062 -294.664062 98.175781 -291.046875 96.4375 -285.828125 C 94.695312 -280.617188 93.828125 -272.800781 93.828125 -262.375 L 93.828125 -45.171875 C 93.828125 -34.753906 94.695312 -26.9375 96.4375 -21.71875 C 98.175781 -16.507812 101.289062 -12.890625 105.78125 -10.859375 C 110.269531 -8.828125 117.144531 -7.8125 126.40625 -7.8125 C 157.101562 -7.8125 181.285156 -13.382812 198.953125 -24.53125 C 216.617188 -35.6875 229 -51.976562 236.09375 -73.40625 C 243.195312 -94.84375 246.75 -122.210938 246.75 -155.515625 C 246.75 -188.816406 242.835938 -215.96875 235.015625 -236.96875 C 227.191406 -257.96875 214.519531 -273.675781 197 -284.09375 C 179.476562 -294.519531 155.804688 -299.734375 125.984375 -299.734375 Z M 125.984375 -299.734375 "/></g></g></g><g fill="#000000" fill-opacity="1"><g transform="translate(-10.687441, 358.992558)"><g><path d="M 136.84375 -307.5625 C 188.101562 -307.5625 226.472656 -294.742188 251.953125 -269.109375 C 277.441406 -243.484375 290.1875 -206.195312 290.1875 -157.25 C 290.1875 -125.6875 283.957031 -98.03125 271.5 -74.28125 C 259.050781 -50.53125 241.023438 -32.210938 217.421875 -19.328125 C 193.816406 -6.441406 165.648438 0 132.921875 0 L 107.734375 -0.4375 C 91.515625 -1.007812 79.640625 -1.296875 72.109375 -1.296875 C 48.359375 -1.296875 30.40625 -0.863281 18.25 0 L 18.25 -8.6875 C 28.675781 -9.269531 36.273438 -10.425781 41.046875 -12.15625 C 45.828125 -13.894531 49.085938 -17.226562 50.828125 -22.15625 C 52.566406 -27.082031 53.4375 -35.046875 53.4375 -46.046875 L 53.4375 -261.515625 C 53.4375 -272.515625 52.566406 -280.476562 50.828125 -285.40625 C 49.085938 -290.332031 45.828125 -293.660156 41.046875 -295.390625 C 36.273438 -297.128906 28.675781 -298.289062 18.25 -298.875 L 18.25 -307.5625 C 28.382812 -306.6875 42.425781 -306.25 60.375 -306.25 L 97.3125 -306.6875 C 117 -307.269531 130.175781 -307.5625 136.84375 -307.5625 Z M 125.984375 -299.734375 C 117.003906 -299.734375 110.269531 -298.71875 105.78125 -296.6875 C 101.289062 -294.664062 98.175781 -291.046875 96.4375 -285.828125 C 94.695312 -280.617188 93.828125 -272.800781 93.828125 -262.375 L 93.828125 -45.171875 C 93.828125 -34.753906 94.695312 -26.9375 96.4375 -21.71875 C 98.175781 -16.507812 101.289062 -12.890625 105.78125 -10.859375 C 110.269531 -8.828125 117.144531 -7.8125 126.40625 -7.8125 C 157.101562 -7.8125 181.285156 -13.382812 198.953125 -24.53125 C 216.617188 -35.6875 229 -51.976562 236.09375 -73.40625 C 243.195312 -94.84375 246.75 -122.210938 246.75 -155.515625 C 246.75 -188.816406 242.835938 -215.96875 235.015625 -236.96875 C 227.191406 -257.96875 214.519531 -273.675781 197 -284.09375 C 179.476562 -294.519531 155.804688 -299.734375 125.984375 -299.734375 Z M 125.984375 -299.734375 "/></g></g></g><g fill="#000000" fill-opacity="0.4"><g transform="translate(169.352307, 282.973556)"><g><path d="M 195.625 -45.203125 C 195.625 -31.785156 196.445312 -16.71875 198.09375 0 C 182.082031 -0.707031 155.128906 -1.0625 117.234375 -1.0625 C 72.035156 -1.0625 37.898438 -0.707031 14.828125 0 L 14.828125 -7.0625 C 23.304688 -7.53125 29.484375 -8.46875 33.359375 -9.875 C 37.242188 -11.289062 39.894531 -14 41.3125 -18 C 42.726562 -22.007812 43.4375 -28.484375 43.4375 -37.421875 L 43.4375 -212.578125 C 43.4375 -221.515625 42.726562 -227.984375 41.3125 -231.984375 C 39.894531 -235.992188 37.242188 -238.703125 33.359375 -240.109375 C 29.484375 -241.523438 23.304688 -242.46875 14.828125 -242.9375 L 14.828125 -250 C 37.898438 -249.289062 72.035156 -248.9375 117.234375 -248.9375 C 151.835938 -248.9375 176.4375 -249.289062 191.03125 -250 C 189.382812 -234.46875 188.5625 -220.578125 188.5625 -208.328125 C 188.5625 -199.148438 188.914062 -191.851562 189.625 -186.4375 L 181.5 -186.4375 C 179.851562 -201.738281 177.734375 -213.097656 175.140625 -220.515625 C 172.554688 -227.929688 168.203125 -233.34375 162.078125 -236.75 C 155.953125 -240.164062 146.65625 -241.875 134.1875 -241.875 L 104.875 -241.875 C 96.394531 -241.875 90.210938 -241.226562 86.328125 -239.9375 C 82.453125 -238.644531 79.804688 -235.992188 78.390625 -231.984375 C 76.972656 -227.984375 76.265625 -221.515625 76.265625 -212.578125 L 76.265625 -129.234375 L 99.578125 -129.234375 C 107.816406 -129.234375 114.171875 -131.175781 118.640625 -135.0625 C 123.117188 -138.945312 126.117188 -143.535156 127.640625 -148.828125 C 129.171875 -154.128906 130.410156 -160.78125 131.359375 -168.78125 L 132.421875 -175.84375 L 140.53125 -175.84375 C 139.832031 -165.957031 139.484375 -154.894531 139.484375 -142.65625 L 139.484375 -125.703125 C 139.484375 -113.703125 140.1875 -96.988281 141.59375 -75.5625 L 133.46875 -75.5625 C 133.238281 -77.207031 132.535156 -82.914062 131.359375 -92.6875 C 130.179688 -102.457031 126.941406 -109.8125 121.640625 -114.75 C 116.347656 -119.695312 108.992188 -122.171875 99.578125 -122.171875 L 76.265625 -122.171875 L 76.265625 -37.421875 C 76.265625 -28.484375 76.972656 -22.007812 78.390625 -18 C 79.804688 -14 82.453125 -11.351562 86.328125 -10.0625 C 90.210938 -8.769531 96.394531 -8.125 104.875 -8.125 L 130.65625 -8.125 C 145.25 -8.125 156.367188 -10.066406 164.015625 -13.953125 C 171.671875 -17.835938 177.265625 -24.070312 180.796875 -32.65625 C 184.328125 -41.25 186.914062 -53.90625 188.5625 -70.625 L 196.6875 -70.625 C 195.976562 -64.269531 195.625 -55.796875 195.625 -45.203125 Z M 195.625 -45.203125 "/></g></g></g><g fill="#000000" fill-opacity="1"><g transform="translate(153.747021, 267.368267)"><g><path d="M 195.625 -45.203125 C 195.625 -31.785156 196.445312 -16.71875 198.09375 0 C 182.082031 -0.707031 155.128906 -1.0625 117.234375 -1.0625 C 72.035156 -1.0625 37.898438 -0.707031 14.828125 0 L 14.828125 -7.0625 C 23.304688 -7.53125 29.484375 -8.46875 33.359375 -9.875 C 37.242188 -11.289062 39.894531 -14 41.3125 -18 C 42.726562 -22.007812 43.4375 -28.484375 43.4375 -37.421875 L 43.4375 -212.578125 C 43.4375 -221.515625 42.726562 -227.984375 41.3125 -231.984375 C 39.894531 -235.992188 37.242188 -238.703125 33.359375 -240.109375 C 29.484375 -241.523438 23.304688 -242.46875 14.828125 -242.9375 L 14.828125 -250 C 37.898438 -249.289062 72.035156 -248.9375 117.234375 -248.9375 C 151.835938 -248.9375 176.4375 -249.289062 191.03125 -250 C 189.382812 -234.46875 188.5625 -220.578125 188.5625 -208.328125 C 188.5625 -199.148438 188.914062 -191.851562 189.625 -186.4375 L 181.5 -186.4375 C 179.851562 -201.738281 177.734375 -213.097656 175.140625 -220.515625 C 172.554688 -227.929688 168.203125 -233.34375 162.078125 -236.75 C 155.953125 -240.164062 146.65625 -241.875 134.1875 -241.875 L 104.875 -241.875 C 96.394531 -241.875 90.210938 -241.226562 86.328125 -239.9375 C 82.453125 -238.644531 79.804688 -235.992188 78.390625 -231.984375 C 76.972656 -227.984375 76.265625 -221.515625 76.265625 -212.578125 L 76.265625 -129.234375 L 99.578125 -129.234375 C 107.816406 -129.234375 114.171875 -131.175781 118.640625 -135.0625 C 123.117188 -138.945312 126.117188 -143.535156 127.640625 -148.828125 C 129.171875 -154.128906 130.410156 -160.78125 131.359375 -168.78125 L 132.421875 -175.84375 L 140.53125 -175.84375 C 139.832031 -165.957031 139.484375 -154.894531 139.484375 -142.65625 L 139.484375 -125.703125 C 139.484375 -113.703125 140.1875 -96.988281 141.59375 -75.5625 L 133.46875 -75.5625 C 133.238281 -77.207031 132.535156 -82.914062 131.359375 -92.6875 C 130.179688 -102.457031 126.941406 -109.8125 121.640625 -114.75 C 116.347656 -119.695312 108.992188 -122.171875 99.578125 -122.171875 L 76.265625 -122.171875 L 76.265625 -37.421875 C 76.265625 -28.484375 76.972656 -22.007812 78.390625 -18 C 79.804688 -14 82.453125 -11.351562 86.328125 -10.0625 C 90.210938 -8.769531 96.394531 -8.125 104.875 -8.125 L 130.65625 -8.125 C 145.25 -8.125 156.367188 -10.066406 164.015625 -13.953125 C 171.671875 -17.835938 177.265625 -24.070312 180.796875 -32.65625 C 184.328125 -41.25 186.914062 -53.90625 188.5625 -70.625 L 196.6875 -70.625 C 195.976562 -64.269531 195.625 -55.796875 195.625 -45.203125 Z M 195.625 -45.203125 "/></g></g></g></svg>